<svg width="120" height="15" viewBox="0 0 120 15" fill="none" xmlns="http://www.w3.org/2000/svg">
<path fill-rule="evenodd" clip-rule="evenodd" d="M52.9629 7.23226C52.9678 8.19654 52.7685 9.15094 52.3783 10.0328C52.0006 10.8939 51.4594 11.6737 50.7848 12.3288C50.1012 12.9877 49.3021 13.5151 48.4274 13.8846C47.5174 14.2628 46.5417 14.4575 45.5562 14.4575C44.5708 14.4575 43.595 14.2628 42.685 13.8846C41.8104 13.5151 41.0113 12.9877 40.3277 12.3288C39.6531 11.6737 39.1119 10.8939 38.7341 10.0328C38.3485 9.14948 38.1494 8.19606 38.1494 7.23226C38.1494 6.26846 38.3485 5.31505 38.7341 4.43176C39.1133 3.56811 39.656 2.78603 40.3324 2.12866C41.0155 1.46967 41.8147 0.94295 42.6897 0.575188C43.5994 0.195501 44.5753 0 45.5609 0C46.5466 0 47.5225 0.195501 48.4322 0.575188C49.3071 0.94295 50.1064 1.46967 50.7895 2.12866C51.4634 2.78436 52.0045 3.56395 52.383 4.42469C52.7726 5.30904 52.9702 6.26594 52.9629 7.23226ZM48.5288 7.23226C48.5274 6.82781 48.4473 6.42749 48.2931 6.0536C48.1476 5.69481 47.932 5.36864 47.659 5.09417C47.3884 4.8217 47.0684 4.60329 46.716 4.45062C46.3487 4.29357 45.9534 4.21259 45.5539 4.21259C45.1544 4.21259 44.759 4.29357 44.3917 4.45062C44.0395 4.60354 43.7195 4.82192 43.4488 5.09417C43.175 5.36803 42.9593 5.69436 42.8147 6.0536C42.5098 6.81633 42.5098 7.66705 42.8147 8.42978C42.9593 8.78902 43.175 9.11536 43.4488 9.38921C43.7195 9.66146 44.0395 9.87984 44.3917 10.0328C44.759 10.1898 45.1544 10.2708 45.5539 10.2708C45.9534 10.2708 46.3487 10.1898 46.716 10.0328C47.0684 9.8801 47.3884 9.66168 47.659 9.38921C47.932 9.11475 48.1476 8.78857 48.2931 8.42978C48.4498 8.05003 48.5299 7.64306 48.5288 7.23226ZM20.241 14.151H24.5549V9.33028H28.633V5.45013H24.5549V4.18425H28.633V0.304098H20.241V14.151ZM33.7201 10.1035V0.304098H29.385V14.151H38.3923V10.1035H33.7201ZM51.6357 0.304098L56.4258 14.151H60.2659L62.4441 6.37184L64.6222 14.151H68.4812L73.2665 0.304098H68.8536L66.5576 7.94418L64.3983 0.304098H60.5771L58.406 7.94418L56.1288 0.304098H51.6357ZM82.0994 5.15311C81.7281 4.88244 81.3222 4.66283 80.8925 4.50013C80.4388 4.33795 79.9598 4.25812 79.4781 4.2644C79.0472 4.26158 78.6199 4.34161 78.2193 4.50013C77.8566 4.64345 77.5269 4.85922 77.2504 5.13425C76.9791 5.40377 76.7636 5.72421 76.6163 6.07718C76.3114 6.81868 76.3114 7.65056 76.6163 8.39206C76.7609 8.74647 76.9767 9.06741 77.2504 9.33499C77.5306 9.60539 77.8593 9.82052 78.2193 9.96911C78.6189 10.1309 79.0469 10.2111 79.4781 10.2048C79.9497 10.2091 80.4182 10.1293 80.8618 9.96911C81.3008 9.80324 81.7193 9.58729 82.1088 9.32556V13.7455C81.5718 14.0168 80.9986 14.2097 80.4069 14.3184C79.9494 14.4027 79.4858 14.4493 79.0208 14.4575C78.0934 14.4671 77.1734 14.2927 76.3139 13.9443C75.4545 13.5959 74.6727 13.0805 74.0138 12.4278C73.3579 11.7755 72.84 10.9979 72.491 10.1412C72.1137 9.21834 71.9253 8.22919 71.937 7.23226C71.927 6.25152 72.1155 5.27889 72.491 4.37283C72.8435 3.51801 73.3609 2.74101 74.0138 2.08623C74.6595 1.44034 75.4218 0.922792 76.2603 0.561044C77.1289 0.187348 78.0658 -0.00131585 79.0113 0.0070738C79.5279 0.00997423 80.0426 0.0700591 80.5459 0.18623C81.085 0.304947 81.6069 0.491068 82.0994 0.740201V5.15311ZM96.6794 10.0328C97.0696 9.15094 97.2689 8.19654 97.264 7.23226C97.2713 6.26594 97.0737 5.30904 96.6841 4.42469C96.3067 3.56337 95.7655 2.78358 95.0906 2.12866C94.4075 1.46967 93.6083 0.94295 92.7333 0.575188C91.8236 0.195501 90.8477 0 89.8621 0C88.8764 0 87.9005 0.195501 86.9908 0.575188C86.1159 0.94295 85.3166 1.46967 84.6335 2.12866C83.9571 2.78603 83.4144 3.56811 83.0353 4.43176C82.6459 5.31376 82.4474 6.26815 82.453 7.23226C82.4474 8.19637 82.6459 9.15076 83.0353 10.0328C83.413 10.8939 83.9542 11.6737 84.6288 12.3288C85.3124 12.9877 86.1115 13.5151 86.9861 13.8846C87.8961 14.2628 88.8719 14.4575 89.8573 14.4575C90.8428 14.4575 91.8186 14.2628 92.7286 13.8846C93.6032 13.5151 94.4023 12.9877 95.0859 12.3288C95.7613 11.6743 96.3025 10.8944 96.6794 10.0328ZM92.5942 6.0536C92.7498 6.42707 92.8299 6.82767 92.8299 7.23226C92.8324 7.6432 92.7523 8.05045 92.5942 8.42978C92.4496 8.78846 92.2348 9.11465 91.9624 9.38921C91.6912 9.66089 91.3713 9.8792 91.0195 10.0328C90.6522 10.1898 90.2568 10.2708 89.8573 10.2708C89.4578 10.2708 89.0625 10.1898 88.6952 10.0328C88.3436 9.87866 88.0239 9.66042 87.7523 9.38921C87.4784 9.11536 87.2628 8.78902 87.1181 8.42978C86.8133 7.66705 86.8133 6.81633 87.1181 6.0536C87.2628 5.69436 87.4784 5.36803 87.7523 5.09417C88.0239 4.82296 88.3436 4.60472 88.6952 4.45062C89.0625 4.29357 89.4578 4.21259 89.8573 4.21259C90.2568 4.21259 90.6522 4.29357 91.0195 4.45062C91.3713 4.60419 91.6912 4.82249 91.9624 5.09417C92.2348 5.36873 92.4496 5.69492 92.5942 6.0536ZM97.8958 14.151V0.304098H102.964C103.924 0.298304 104.876 0.483402 105.765 0.848639C106.617 1.19509 107.397 1.6989 108.063 2.33375C108.718 2.96087 109.243 3.71055 109.609 4.5402C109.982 5.38866 110.175 6.3054 110.175 7.23226C110.175 8.15913 109.982 9.07587 109.609 9.92432C109.245 10.7539 108.721 11.5037 108.068 12.1308C107.401 12.7656 106.622 13.2694 105.769 13.6159C104.879 13.9785 103.925 14.1604 102.964 14.151H97.8958ZM102.825 10.1129C103.22 10.1142 103.611 10.0339 103.973 9.87718C104.323 9.73407 104.643 9.52613 104.916 9.26427C105.183 9.00215 105.395 8.68967 105.541 8.34492C105.69 7.98721 105.767 7.60341 105.767 7.21576C105.767 6.82811 105.69 6.44432 105.541 6.08661C105.386 5.74932 105.167 5.44575 104.895 5.19318C104.622 4.93133 104.302 4.72338 103.952 4.58028C103.589 4.42354 103.199 4.34329 102.804 4.34455H102.172V10.1223L102.825 10.1129ZM119.454 0.304098H110.802V14.151H119.494V10.2803H115.118V9.07333H119.454V5.36291H115.118V4.18425H119.454V0.304098Z" fill="white"/>
<path d="M14.4578 12.4444V0H0V14.4578H14.4578V12.4444ZM2.12535 2.02578H12.3596V12.4444H2.12535V2.02578Z" fill="white"/>
<path d="M4.33734 4.33734V10.1205H10.1205V4.33734H4.33734Z" fill="white"/>
</svg>
